<svg width="270" height="35" viewBox="0 0 270 35" fill="none" xmlns="http://www.w3.org/2000/svg">
<path d="M257.748 29.167V7.297H261.15L265.632 17.827V7.297H269.628V29.167H266.361L261.879 17.827V29.167H257.748Z" fill="#343B44"/>
<path d="M236.694 29.167L240.825 7.297H246.333L250.41 29.167H245.955L245.226 24.55H242.013L241.257 29.167H236.694ZM242.445 21.661H244.767L243.606 13.129L242.445 21.661Z" fill="#343B44"/>
<path d="M216.218 29.167V7.297H221.051V16.153H224.426V7.297H229.286V29.167H224.426V19.609H221.051V29.167H216.218Z" fill="#343B44"/>
<path d="M202.057 29.491C200.401 29.491 199.087 29.194 198.115 28.6C197.161 27.988 196.486 27.142 196.09 26.062C195.694 24.964 195.496 23.677 195.496 22.201V14.317C195.496 12.805 195.694 11.509 196.09 10.429C196.486 9.331 197.161 8.485 198.115 7.891C199.087 7.297 200.401 7 202.057 7C203.677 7 204.937 7.27 205.837 7.81C206.755 8.332 207.403 9.07 207.781 10.024C208.159 10.978 208.348 12.076 208.348 13.318V15.208H203.623V13.021C203.623 12.589 203.596 12.175 203.542 11.779C203.506 11.383 203.38 11.059 203.164 10.807C202.948 10.537 202.579 10.402 202.057 10.402C201.553 10.402 201.175 10.537 200.923 10.807C200.689 11.077 200.536 11.419 200.464 11.833C200.41 12.229 200.383 12.652 200.383 13.102V23.389C200.383 23.875 200.419 24.325 200.491 24.739C200.581 25.135 200.743 25.459 200.977 25.711C201.229 25.945 201.589 26.062 202.057 26.062C202.561 26.062 202.921 25.936 203.137 25.684C203.353 25.414 203.488 25.072 203.542 24.658C203.596 24.244 203.623 23.821 203.623 23.389V21.094H208.348V22.984C208.348 24.226 208.159 25.342 207.781 26.332C207.421 27.304 206.782 28.078 205.864 28.654C204.964 29.212 203.695 29.491 202.057 29.491Z" fill="#343B44"/>
<path d="M174.685 29.167V7.297H180.706C182.182 7.297 183.46 7.459 184.54 7.783C185.62 8.107 186.457 8.692 187.051 9.538C187.663 10.366 187.969 11.545 187.969 13.075C187.969 13.975 187.897 14.776 187.753 15.478C187.609 16.18 187.339 16.792 186.943 17.314C186.565 17.818 186.016 18.241 185.296 18.583L188.293 29.167H183.298L180.895 19.366H179.518V29.167H174.685ZM179.518 16.585H180.868C181.552 16.585 182.083 16.468 182.461 16.234C182.839 15.982 183.1 15.631 183.244 15.181C183.406 14.713 183.487 14.155 183.487 13.507C183.487 12.571 183.316 11.842 182.974 11.32C182.632 10.798 182.002 10.537 181.084 10.537H179.518V16.585Z" fill="#343B44"/>
<path d="M157.479 29.167V7.297H167.307V10.591H162.312V16.018H166.119V19.366H162.312V25.9H167.361V29.167H157.479Z" fill="#343B44"/>
<path d="M133.257 29.167L133.635 7.297H138.819L141.222 20.014L143.814 7.297H148.809L149.187 29.167H145.758L145.353 14.614L142.815 29.167H139.764L137.064 14.506L136.74 29.167H133.257Z" fill="#343B44"/>
<path d="M104.199 29.167V7.297H109.032V25.9H114.054V29.167H104.199Z" fill="#343B44"/>
<path d="M87.0981 29.167V7.297H91.9311V25.9H96.9531V29.167H87.0981Z" fill="#343B44"/>
<path d="M73.8743 29.167V7.297H78.7073V29.167H73.8743Z" fill="#343B44"/>
<path d="M51.646 29.167L49 7.297H53.104L54.4 20.041L56.047 7.324H59.26L60.988 19.96L62.311 7.297H66.361L63.742 29.167H59.53L57.667 15.964L55.912 29.167H51.646Z" fill="#343B44"/>
<g clip-path="url(#clip0_309_192)">
<rect x="56" y="-1" width="54" height="57" transform="rotate(90 56 -1)" fill="#546170"/>
<path d="M33.0926 20.6354C32.9436 20.6354 32.7946 20.5625 32.7201 20.4896L18.8613 6.99998C18.1907 6.34373 17.3711 6.05206 16.4769 6.05206C14.5397 6.05206 12.975 7.58331 12.975 9.40623C12.975 10.2812 13.3475 11.1562 13.9436 11.7396L18.4142 16.0416C18.6377 16.2604 18.6377 16.5521 18.4142 16.7708L18.2652 16.9166C18.0416 17.0625 17.7436 17.0625 17.5201 16.9166L13.0495 12.6146C12.1554 11.7396 11.7083 10.6458 11.7083 9.40623C11.7083 6.85415 13.7946 4.8854 16.4024 4.8854C16.775 4.8854 17.222 4.95831 17.5946 5.03123C16.924 2.62498 18.4142 0.0728963 20.873 -0.583354C21.3946 -0.65627 21.7671 -0.729187 22.2142 -0.729187C23.4064 -0.729187 24.5985 -0.291687 25.4926 0.583313L39.3515 14.0729C39.426 14.1458 39.5005 14.2916 39.5005 14.4375C39.5005 14.5833 39.426 14.7291 39.3515 14.875L39.2769 14.9479C39.0534 15.1666 38.7554 15.1666 38.5318 14.9479L24.5985 1.3854C23.9279 0.729146 23.1083 0.43748 22.2142 0.43748C20.2769 0.43748 18.7122 1.96873 18.7122 3.79165C18.7122 4.66665 19.0848 5.54165 19.6809 6.12498L33.5397 19.6146C33.7632 19.8333 33.7632 20.125 33.5397 20.3437L33.4652 20.4166C33.3907 20.5625 33.2417 20.6354 33.0926 20.6354ZM15.8064 35.7291C14.6142 35.7291 13.422 35.2916 12.5279 34.4166L-1.3309 21C-1.55443 20.7812 -1.55443 20.4166 -1.25639 20.1979L-1.18188 20.125C-0.958351 19.9062 -0.660311 19.9062 -0.436782 20.125L13.422 33.6146C14.0926 34.2708 14.9122 34.5625 15.8064 34.5625C17.7436 34.5625 19.3083 33.0312 19.3083 31.1354C19.3083 30.2604 18.9358 29.3854 18.3397 28.8021L4.40636 15.3854C4.18283 15.1666 4.18283 14.875 4.40636 14.6562L4.48086 14.5833C4.55537 14.4375 4.70439 14.4375 4.85341 14.4375C5.00243 14.4375 5.15145 14.5104 5.22596 14.5833L19.0848 28.0729C19.7554 28.7291 20.575 29.0208 21.4691 29.0208C23.4064 29.0208 24.9711 27.4896 24.9711 25.6666C24.9711 24.7916 24.5985 23.9166 24.0024 23.3333L20.575 20.0521C20.3515 19.8333 20.3515 19.5416 20.575 19.3229L20.724 19.1771C20.9475 19.0312 21.2456 19.0312 21.4691 19.1771L24.8966 22.4583C26.6848 24.2812 26.6848 27.125 24.822 28.875C23.9279 29.75 22.7358 30.1875 21.5436 30.1875C21.1711 30.1875 20.724 30.1146 20.3515 30.0416C21.022 32.4479 19.5318 35 17.073 35.6562C16.626 35.6562 16.1789 35.7291 15.8064 35.7291Z" fill="url(#paint0_linear_309_192)"/>
</g>
<defs>
<linearGradient id="paint0_linear_309_192" x1="33.6878" y1="0.486479" x2="10.1972" y2="34.865" gradientUnits="userSpaceOnUse">
<stop stop-color="#74EAF3"/>
<stop offset="1" stop-color="#D6FF91"/>
</linearGradient>
<clipPath id="clip0_309_192">
<rect width="38" height="35" rx="4" fill="white"/>
</clipPath>
</defs>
</svg>
